<?xml version="1.0" standalone="no"?>
<!DOCTYPE svg PUBLIC "-//W3C//DTD SVG 20010904//EN"
 "http://www.w3.org/TR/2001/REC-SVG-20010904/DTD/svg10.dtd">
<svg version="1.0" xmlns="http://www.w3.org/2000/svg"
 width="700.000000pt" height="700.000000pt" viewBox="0 0 700.000000 700.000000"
 preserveAspectRatio="xMidYMid meet">
<metadata>
Created by potrace 1.14, written by Peter Selinger 2001-2017
</metadata>
<g transform="translate(0.000000,700.000000) scale(0.100000,-0.100000)"
fill="#000000" stroke="none">
<path d="M2877 6384 c-1 -1 -33 -4 -72 -7 -127 -11 -227 -27 -340 -53 -11 -3
-30 -7 -43 -10 -45 -9 -182 -55 -267 -89 -282 -114 -535 -283 -753 -503 -125
-127 -260 -301 -341 -442 -135 -235 -230 -511 -276 -800 -19 -121 -24 -360
-12 -510 29 -338 138 -667 316 -955 114 -186 198 -288 401 -488 181 -177 270
-254 400 -342 107 -72 117 -81 125 -112 10 -42 85 -191 149 -298 91 -154 182
-273 306 -400 345 -355 535 -497 860 -643 184 -82 412 -145 615 -168 33 -3 69
-8 80 -11 29 -5 353 -5 395 1 19 3 58 8 85 11 28 3 95 15 150 26 55 12 109 23
121 25 12 2 81 24 155 50 551 188 1013 593 1269 1113 78 158 149 354 174 481
3 14 8 36 11 50 41 183 55 519 30 720 -13 98 -23 154 -60 317 -27 117 -173
458 -236 550 -16 23 -29 45 -29 48 0 4 -46 68 -101 142 -170 226 -489 530
-716 681 -57 38 -83 62 -88 80 -12 47 -115 249 -180 352 -100 157 -187 262
-360 436 -255 256 -411 376 -640 497 -165 86 -403 173 -560 202 -200 37 -292
47 -463 49 -57 0 -104 0 -105 0z"/>
</g>
</svg>
